<svg xmlns="http://www.w3.org/2000/svg" xmlns:xlink="http://www.w3.org/1999/xlink" width="500" zoomAndPan="magnify" viewBox="0 0 375 374.999991" height="500" preserveAspectRatio="xMidYMid meet" version="1.0"><defs><clipPath id="id1"><path d="M 7.636719 7.636719 L 367.636719 7.636719 L 367.636719 367.636719 L 7.636719 367.636719 Z M 7.636719 7.636719 " clip-rule="nonzero"/></clipPath><clipPath id="id2"><path d="M 33.667969 33.667969 L 341.167969 33.667969 L 341.167969 341.167969 L 33.667969 341.167969 Z M 33.667969 33.667969 " clip-rule="nonzero"/></clipPath></defs><g clip-path="url(#id1)"><path fill="#55246b" d="M 187.636719 7.636719 C 88.222656 7.636719 7.636719 88.222656 7.636719 187.636719 C 7.636719 287.046875 88.222656 367.636719 187.636719 367.636719 C 287.046875 367.636719 367.636719 287.046875 367.636719 187.636719 C 367.636719 88.222656 287.046875 7.636719 187.636719 7.636719 " fill-opacity="1" fill-rule="nonzero"/></g><g clip-path="url(#id2)"><path fill="#ffffff" d="M 230.65625 282.109375 L 97.625 149.078125 L 130.015625 116.6875 L 230.65625 217.328125 L 326.382812 121.597656 C 301.726562 69.605469 248.761719 33.652344 187.398438 33.652344 C 125.988281 33.652344 72.996094 69.660156 48.359375 121.707031 L 176.648438 249.992188 L 144.535156 282.109375 L 34.417969 171.988281 C 33.910156 177.054688 33.648438 182.195312 33.648438 187.398438 C 33.648438 272.308594 102.484375 341.140625 187.398438 341.140625 C 272.308594 341.140625 341.140625 272.308594 341.140625 187.398438 C 341.140625 182.320312 340.886719 177.304688 340.410156 172.351562 L 230.65625 282.109375 " fill-opacity="1" fill-rule="nonzero"/></g></svg>